:SAMPLES-PER-SECOND 30
:FULLY-SPECIFIED
:DEGREES
502
root  1.42903 37.8827 12.2171 -177.673 17.9516 171.68
RightUpLeg  -19.3875 -12.5109 -24.7399
RightLeg  25.4884 -7.83225 -4.26507
RightFoot  1.42053 -2.89719 25.4881
RightToes  -1.74624e-010 0 -3.6325e-017
Spine  11.0106 -1.39805 -3.96929
Spine1  16.813 -2.1372 0.404065
HEad  -13.3461 21.2003 -15.8948
LeftShoulder1  0.669745 0.233796 -13.4817
LeftArm  12.1929 -2.56169 -53.3944
LeftForeArm  87.7055 -79.4652 -96.0049
LeftHand  -2.17881 -3.61622 27.8514
RightShoulder  0.533821 -0.299783 9.36545
RightArm  3.0103 -14.4135 56.0727
RightForeArm  149.347 62.6965 158.84
RightHand  -0.860921 3.77029 -11.1396
LeftUpLeg  -10.576 -0.54935 10.867
LeftLeg  16.7737 -2.88722 -0.317144
LeftFoot  -5.5006 1.25946 -23.754
LeftToes  3.7286e-011 -1.5702e-010 -9.70233e-012
503
root  2.3437 37.4228 12.5519 -177.956 16.4904 171.21
RightUpLeg  -21.0408 -14.0485 -23.915
RightLeg  30.9321 -6.58167 -4.48944
RightFoot  -4.48533 -1.54623 24.765
RightToes  -1.74624e-010 0 -3.6325e-017
Spine  11.5687 -1.39611 -1.47718
Spine1  18.108 -1.636 -0.159645
HEad  -15.3334 19.8234 -17.6002
LeftShoulder1  0.789347 -0.291431 -13.8354
LeftArm  10.5322 -0.203132 -54.0884
LeftForeArm  77.1787 -79.5417 -83.6766
LeftHand  -2.34952 -3.73741 29.5654
RightShoulder  0.507612 -0.546902 9.93649
RightArm  0.557001 -10.1518 53.8779
RightForeArm  146.899 62.8277 158.477
RightHand  -0.910731 3.74159 -11.8011
LeftUpLeg  -11.8072 -4.50698 12.0988
LeftLeg  18.7006 0.370277 0.46168
LeftFoot  -6.32812 1.08527 -23.5928
LeftToes  3.7286e-011 -1.5702e-010 -9.70233e-012
504
root  3.12678 37.0561 12.8433 -178.646 16.5791 170.783
RightUpLeg  -23.0906 -14.0683 -23.0029
RightLeg  35.9079 -6.29561 -5.134
RightFoot  -7.79727 -0.751456 22.4384
RightToes  -1.74624e-010 0 -3.6325e-017
Spine  11.918 -1.45015 0.948738
Spine1  20.181 -0.769471 -1.85629
HEad  -17.354 18.9793 -19.5154
LeftShoulder1  0.89432 -0.6922 -14.4042
LeftArm  9.22674 3.12939 -55.6903
LeftForeArm  64.9515 -79.0641 -72.5922
LeftHand  -2.34451 -3.45907 30.3741
RightShoulder  0.482029 -0.720579 10.1122
RightArm  -1.35866 -5.32511 52.9143
RightForeArm  144.695 64.4543 156.749
RightHand  -0.941864 3.7507 -12.181
LeftUpLeg  -11.9717 -5.5868 12.5759
LeftLeg  20.5501 2.46328 1.34419
LeftFoot  -7.85756 0.711041 -21.5069
LeftToes  3.7286e-011 -1.5702e-010 -9.70233e-012
505
root  3.75989 36.8745 13.0239 -179.322 17.2991 170.151
RightUpLeg  -24.4946 -13.3367 -22.575
RightLeg  38.98 -6.16779 -5.59532
RightFoot  -9.05046 -0.493788 21.4355
RightToes  -1.74624e-010 0 -3.6325e-017
Spine  12.1993 -1.58791 2.46496
Spine1  21.5011 -0.0717765 -3.60385
HEad  -18.0975 18.7768 -20.946
LeftShoulder1  0.969541 -0.84136 -15.501
LeftArm  9.34337 6.90638 -57.5371
LeftForeArm  54.4895 -78.3631 -65.2388
LeftHand  -2.20113 -3.13712 29.6278
RightShoulder  0.460741 -0.807469 9.85692
RightArm  -2.16356 -2.31876 53.3824
RightForeArm  144.041 66.1977 154.875
RightHand  -0.976683 3.90681 -12.4164
LeftUpLeg  -11.4058 -4.75906 11.9896
LeftLeg  21.559 2.03755 1.221
LeftFoot  -9.87219 0.309216 -19.5562
LeftToes  3.7286e-011 -1.5702e-010 -9.70233e-012
506
root  4.23378 36.9071 13.0797 -179.426 17.3885 169.432
RightUpLeg  -24.8689 -12.9427 -22.5433
RightLeg  39.7919 -6.2286 -5.80784
RightFoot  -9.76262 -0.36636 21.4851
RightToes  -1.74624e-010 0 -3.6325e-017
Spine  11.8935 -1.74726 3.32424
Spine1  22.0647 0.103032 -4.23328
HEad  -17.4126 18.6806 -21.4405
LeftShoulder1  1.03675 -0.896721 -16.8554
LeftArm  11.2952 9.77778 -59.3026
LeftForeArm  47.4239 -77.6661 -59.2925
LeftHand  -2.12054 -3.23655 28.2909
RightShoulder  0.44372 -0.92833 10.0277
RightArm  -2.33971 -2.03099 53.9834
RightForeArm  144.589 66.6878 154.371
RightHand  -1.01574 4.07953 -12.6753
LeftUpLeg  -10.8966 -3.64059 10.6826
LeftLeg  21.2475 0.73706 0.65133
LeftFoot  -10.8471 0.148819 -19.4229
LeftToes  3.7286e-011 -1.5702e-010 -9.70233e-012
507
root  4.56629 37.1257 13.0795 -178.911 16.6207 168.894
RightUpLeg  -24.5146 -12.9562 -22.5002
RightLeg  38.9006 -7.05764 -6.33352
RightFoot  -9.90668 -0.33651 21.2507
RightToes  -1.74624e-010 0 -3.6325e-017
Spine  10.993 -1.91793 3.94216
Spine1  22.388 -0.146262 -3.8847
HEad  -16.3697 18.3371 -21.2691
LeftShoulder1  1.09197 -0.987213 -17.677
LeftArm  14.2873 11.3025 -61.0928
LeftForeArm  45.3986 -77.1947 -54.9856
LeftHand  -2.14832 -3.71547 27.2057
RightShoulder  0.427523 -1.11799 10.8131
RightArm  -2.47279 -3.42707 54.0224
RightForeArm  145.021 66.1303 155.049
RightHand  -1.02466 4.05528 -12.8145
LeftUpLeg  -10.6733 -3.02135 9.30051
LeftLeg  19.6982 1.31676 0.844955
LeftFoot  -9.71656 0.352681 -20.494
LeftToes  3.7286e-011 -1.5702e-010 -9.70233e-012
508
root  4.79591 37.4562 13.0965 -178.28 15.6266 168.588
RightUpLeg  -23.757 -12.8933 -22.3501
RightLeg  37.0971 -8.42251 -7.03749
RightFoot  -8.92878 -0.505125 20.8577
RightToes  -1.74624e-010 0 -3.6325e-017
Spine  10.3327 -2.13861 4.09189
Spine1  22.2798 -0.666924 -3.19451
HEad  -15.8828 18.1304 -21.0286
LeftShoulder1  1.09927 -1.02552 -17.627
LeftArm  17.004 12.0064 -62.7253
LeftForeArm  48.1914 -77.3173 -54.7208
LeftHand  -2.15844 -4.15907 26.1127
RightShoulder  0.42421 -1.20842 11.4443
RightArm  -2.44315 -5.18307 54.1144
RightForeArm  144.927 65.5979 155.62
RightHand  -0.997895 3.87981 -12.7135
LeftUpLeg  -10.4151 -2.14491 8.13901
LeftLeg  17.5803 2.25367 1.19021
LeftFoot  -7.66207 0.738437 -21.3691
LeftToes  3.7286e-011 -1.5702e-010 -9.70233e-012
509
root  4.95133 37.8014 13.1376 -177.89 14.9475 168.421
RightUpLeg  -22.8152 -12.736 -22.1971
RightLeg  34.9825 -9.50179 -7.32899
RightFoot  -7.37478 -0.777771 20.7798
RightToes  -1.74624e-010 0 -3.6325e-017
Spine  10.3061 -2.33465 3.58294
Spine1  21.5658 -1.32036 -2.28004
HEad  -15.8756 18.4284 -20.917
LeftShoulder1  1.05456 -0.924317 -17.1325
LeftArm  18.8538 12.0576 -63.566
LeftForeArm  53.4047 -77.9342 -58.7182
LeftHand  -2.07802 -4.30878 24.8077
RightShoulder  0.455888 -1.03821 11.4524
RightArm  -1.97791 -6.82725 54.6984
RightForeArm  145.231 65.4779 155.779
RightHand  -0.966088 3.79726 -12.4256
LeftUpLeg  -9.97674 -0.527451 7.10904
LeftLeg  15.8245 0.0780536 0.556939
LeftFoot  -6.25852 1.01504 -21.7985
LeftToes  3.7286e-011 -1.5702e-010 -9.70233e-012
510
root  5.04814 38.081 13.1679 -177.633 14.7115 168.415
RightUpLeg  -22.0139 -12.7621 -21.9427
RightLeg  33.0018 -10.0456 -7.19751
RightFoot  -6.17533 -0.980936 20.6012
RightToes  -1.74624e-010 0 -3.6325e-017
Spine  10.305 -2.36568 2.91383
Spine1  20.8542 -1.81188 -1.27888
HEad  -15.9099 18.9623 -20.7448
LeftShoulder1  1.00093 -0.79041 -16.5834
LeftArm  19.8871 11.061 -63.4121
LeftForeArm  58.3466 -78.497 -63.9187
LeftHand  -1.98107 -4.23617 23.8698
RightShoulder  0.513502 -0.700154 11.2334
RightArm  -1.27646 -8.1789 55.328
RightForeArm  146.115 65.3847 155.973
RightHand  -0.936952 3.845 -12.0014
LeftUpLeg  -9.54814 0.512881 6.34898
LeftLeg  14.9383 -3.38333 -0.502781
LeftFoot  -5.38432 1.17724 -21.7834
LeftToes  3.7286e-011 -1.5702e-010 -9.70233e-012
511
root  5.09014 38.2659 13.1737 -177.355 14.7962 168.677
RightUpLeg  -21.502 -12.9076 -21.438
RightLeg  31.3901 -10.3697 -6.99365
RightFoot  -5.43951 -1.08289 20.0893
RightToes  -1.74624e-010 0 -3.6325e-017
Spine  9.89195 -2.27814 2.66198
Spine1  20.6535 -1.95698 -0.698648
HEad  -15.8634 19.3498 -20.4501
LeftShoulder1  0.959709 -0.725897 -15.9091
LeftArm  20.0093 9.11893 -62.8018
LeftForeArm  61.4239 -78.7828 -67.4036
LeftHand  -1.9355 -4.05469 23.7702
RightShoulder  0.560194 -0.439874 11.1874
RightArm  -0.628403 -8.84115 55.5955
RightForeArm  146.661 65.1429 156.282
RightHand  -0.893183 3.80338 -11.505
LeftUpLeg  -9.22805 0.64103 6.02061
LeftLeg  14.5958 -3.93488 -0.659637
LeftFoot  -4.3437 1.31341 -20.8693
LeftToes  3.7286e-011 -1.5702e-010 -9.70233e-012
512
root  5.06697 38.3729 13.1767 -177.182 14.9086 169.195
RightUpLeg  -20.9612 -12.8978 -20.8082
RightLeg  30.057 -10.6869 -6.84745
RightFoot  -4.84962 -1.16582 19.782
RightToes  -1.74624e-010 0 -3.6325e-017
Spine  9.51725 -2.24477 2.68167
Spine1  20.6126 -1.98806 -0.522868
HEad  -15.7972 19.5869 -20.1964
LeftShoulder1  0.91656 -0.673082 -15.0927
LeftArm  19.1059 7.06359 -62.2456
LeftForeArm  62.9815 -78.9158 -69.5857
LeftHand  -1.91504 -3.74209 24.2991
RightShoulder  0.572173 -0.374137 11.1911
RightArm  0.0341554 -8.60086 55.6159
RightForeArm  146.518 65.0083 156.403
RightHand  -0.855969 3.64819 -11.2206
LeftUpLeg  -8.91739 0.647508 6.12618
LeftLeg  14.3158 -1.479 0.110023
LeftFoot  -3.42833 1.38598 -19.5683
LeftToes  3.7286e-011 -1.5702e-010 -9.70233e-012
513
root  4.96601 38.4176 13.1983 -177.292 14.737 169.756
RightUpLeg  -20.1361 -12.7704 -20.383
RightLeg  29.0074 -11.0479 -6.78961
RightFoot  -4.49277 -1.22838 19.828
RightToes  -1.74624e-010 0 -3.6325e-017
Spine  9.6125 -2.31622 2.40412
Spine1  20.3389 -2.24293 -0.130272
HEad  -15.7206 19.7445 -20.031
LeftShoulder1  0.873195 -0.58819 -14.4319
LeftArm  17.5353 5.41855 -61.7587
LeftForeArm  63.8528 -78.9953 -71.5888
LeftHand  -1.90864 -3.38347 25.165
RightShoulder  0.564993 -0.401948 11.057
RightArm  0.726381 -7.72606 55.5973
RightForeArm  146.312 65.1407 156.246
RightHand  -0.875389 3.66102 -11.4497
LeftUpLeg  -8.69616 0.841483 6.40207
LeftLeg  14.318 0.296834 0.646747
LeftFoot  -3.37604 1.34868 -18.9315
LeftToes  3.7286e-011 -1.5702e-010 -9.70233e-012
514
root  4.78271 38.3959 13.2289 -177.626 14.2556 170.18
RightUpLeg  -19.2846 -12.8227 -20.3309
RightLeg  28.5114 -11.4348 -6.88174
RightFoot  -4.51921 -1.22432 19.835
RightToes  -1.74624e-010 0 -3.6325e-017
Spine  9.85241 -2.40742 1.7998
Spine1  20.174 -2.64865 0.543799
HEad  -15.661 19.7138 -19.7719
LeftShoulder1  0.857361 -0.578672 -14.0614
LeftArm  15.8874 3.99745 -61.2388
LeftForeArm  64.3393 -79.0364 -72.99
LeftHand  -1.94996 -3.19308 26.2295
RightShoulder  0.568112 -0.378968 10.8372
RightArm  1.03418 -6.6457 55.6567
RightForeArm  146.322 65.4382 155.94
RightHand  -0.958005 3.96715 -12.109
LeftUpLeg  -8.81001 0.729412 6.61788
LeftLeg  15.1224 -0.452702 0.356585
LeftFoot  -4.36104 1.19652 -19.0443
LeftToes  3.7286e-011 -1.5702e-010 -9.70233e-012
515
root  4.50877 38.32 13.2414 -177.989 13.7211 170.57
RightUpLeg  -18.6639 -13.082 -20.5077
RightLeg  28.494 -11.6278 -6.98653
RightFoot  -4.52782 -1.23049 19.9582
RightToes  -1.74624e-010 0 -3.6325e-017
Spine  9.75608 -2.46781 1.46262
Spine1  20.557 -2.85924 0.849363
HEad  -15.6139 19.4803 -19.2525
LeftShoulder1  0.873524 -0.711367 -13.7577
LeftArm  14.473 2.63284 -60.811
LeftForeArm  65.0162 -79.0764 -73.916
LeftHand  -2.00655 -3.18097 26.9983
RightShoulder  0.573334 -0.293178 10.6073
RightArm  0.662681 -5.63859 55.9076
RightForeArm  146.111 65.7583 155.578
RightHand  -1.05569 4.31588 -12.8543
LeftUpLeg  -9.25653 0.0621135 6.84341
LeftLeg  16.7244 -2.13699 -0.334967
LeftFoot  -5.94716 0.936614 -18.9621
LeftToes  3.7286e-011 -1.5702e-010 -9.70233e-012
516
root  4.12809 38.2354 13.2263 -178.289 13.3176 171.156
RightUpLeg  -18.0503 -13.1769 -20.6786
RightLeg  28.3078 -11.5917 -6.9168
RightFoot  -4.03166 -1.35493 20.5639
RightToes  -1.74624e-010 0 -3.6325e-017
Spine  9.3772 -2.49262 1.62028
Spine1  21.2689 -2.79711 0.636949
HEad  -15.421 19.2505 -18.5137
LeftShoulder1  0.889038 -0.849107 -13.4278
LeftArm  13.3709 1.53938 -60.7075
LeftForeArm  66.923 -79.1722 -76.0177
LeftHand  -1.99659 -3.15252 26.9527
RightShoulder  0.574995 -0.228615 10.3723
RightArm  -0.0388849 -4.89626 56.2932
RightForeArm  145.6 65.9756 155.286
RightHand  -1.11515 4.43209 -13.4044
LeftUpLeg  -9.75951 -0.643379 7.22207
LeftLeg  18.5546 -3.33215 -0.924895
LeftFoot  -7.73622 0.630656 -18.4356
LeftToes  3.7286e-011 -1.5702e-010 -9.70233e-012
